PathFileType	4	(X/Y/Z)	C:/Users/beibeiliu/ov580/test_trc\sequence.25_training_dense_left.trc
DataRate	CameraRate	NumFrames	NumMarkers	Units	OrigDataRate	OrigDataStartFrame	OrigNumFrames
120	120	14	19	mm	120	29	84
Frame#	Time	ThumbCMC			ThumbMCP			ThumbIP			ThumbTip			IndexMCP			IndexPIP			IndexTip			MiddleMCP			MiddlePIP			MiddleTip			RingMCP			RingPIP			RingTip			PinkyMCP			PinkyPIP			PinkyTip			BackHand1			BackHand2			BackHand3	
		X0	Y0	Z0	X1	Y1	Z1	X2	Y2	Z2	X3	Y3	Z3	X4	Y4	Z4	X5	Y5	Z5	X6	Y6	Z6	X7	Y7	Z7	X8	Y8	Z8	X9	Y9	Z9	X10	Y10	Z10	X11	Y11	Z11	X12	Y12	Z12	X13	Y13	Z13	X14	Y14	Z14	X15	Y15	Z15	X16	Y16	Z16	X17	Y17	Z17	X18	Y18	Z18	
28	0.233333	-167.233	68.5945	20.0049	-143.048	73.0821	13.5784	-120.9	60.5088	5.87388	-106.282	42.6347	9.39235	-112.834	39.3322	-9.50707	-89.5515	39.1097	4.51773	-103.394	50.1044	33.0241	-111.176	24.5422	-1.07933	-89.9333	29.217	22.2775	-112.852	38.1364	38.4022	-113.09	8.07306	10.8569	-98.3613	20.3181	30.1753	-117.282	32.484	43.2162	-127.826	-3.12055	19.6729	-107.587	4.73394	34.0932	-118.097	24.0019	47.944	-164.053	11.6455	10.6143	-191.494	22.9294	22.2875	-175.113	40.4022	5.5207	
29	0.241667	-173.786	66.2811	21.3943	-149.981	75.8582	8.63138	-126.095	77.4935	0.340875	-102.91	65.5512	6.52874	-111.437	48.4773	-5.82042	-87.3713	60.2132	6.67214	-105.802	72.8455	30.1281	-100.666	33.6645	4.55748	-84.7242	48.8461	24.8216	-114.067	57.5253	39.1451	-103.046	22.8239	16.6037	-90.3627	38.5665	33.6084	-110.809	46.6937	49.2467	-113.294	11.1953	27.6604	-94.5671	25.1281	39.1077	-110.151	42.33	50.2968	-155.857	17.1487	18.1869	-178.106	18.5566	27.6229	-170.338	37.4674	8.61203	
30	0.25	-170.892	59.2238	18.907	-154.153	77.6219	1.79379	-133.344	79.3159	-0.927119	-107.497	77.0665	0.131118	-106.295	59.8934	-8.87837	-89.0411	71.7491	6.1391	-113.355	80.2914	28.5775	-98.474	44.1566	6.53257	-83.2994	64.6277	24.8748	-110.836	67.3086	39.127	-93.9715	34.2045	18.0835	-85.6514	54.3743	36.0604	-110.692	62.4267	44.1895	-100.681	22.2439	32.6106	-87.7697	39.2004	40.8056	-108.125	57.9458	52.643	-141.747	13.685	22.7751	-168.259	13.6913	33.6873	-162.715	31.7928	11.1667	
31	0.258333	-173.666	55.5777	17.5747	-159.654	76.0884	-1.9829	-139.54	79.3607	-8.07093	-115.373	86.7133	-13.4933	-107.236	62.0636	-10.9863	-95.7066	83.4154	-1.47013	-120.028	88.2267	18.2005	-95.114	55.6563	0.49491	-88.1764	78.0854	16.6815	-117.085	78.0029	30.6793	-92.4123	41.7542	17.7874	-84.8423	64.7512	25.5843	-110.058	71.2252	39.4816	-96.5977	29.4295	33.2482	-83.4263	52.8493	37.7274	-101.242	67.0155	45.2926	-135.856	16.8104	24.0904	-161.412	14.2758	35.8542	-159.329	32.7089	9.64343	
32	0.266667	-172.587	50.1355	14.6527	-164.31	67.9265	-5.05419	-145.97	77.5012	-18.4371	-123.782	82.6356	-23.1473	-117.341	60.8168	-21.1944	-103.067	85.3148	-12.7982	-125.092	87.0639	7.84154	-99.3059	56.1523	-7.27433	-90.5511	83.5478	2.0636	-118.612	81.5722	18.86	-93.0707	48.5331	5.47897	-85.5493	72.8041	12.8581	-109.306	77.1875	28.247	-90.4926	37.3546	25.1981	-83.8862	61.2744	20.816	-104.151	74.3737	32.8196	-128.035	18.1544	22.4039	-152.752	13.1582	36.8963	-153.275	25.7454	13.9299	
33	0.275	-175.064	42.3267	11.6355	-167.968	56.9706	-12.8865	-149.547	64.5622	-30.8974	-133.488	71.5486	-37.4252	-120.081	51.7716	-29.8992	-109.848	78.0176	-30.3176	-131.327	81.5834	-8.89073	-103.394	53.863	-24.1013	-97.3232	80.7997	-19.9394	-120.509	81.6554	1.31291	-93.852	49.5729	-9.71477	-90.6025	73.5793	-7.3198	-112.986	76.8147	11.7512	-86.2895	41.4628	9.42136	-85.6123	63.6747	2.39185	-101.422	79.1296	14.5507	-125.175	19.0166	16.6616	-141.198	12.4093	34.0048	-149.48	18.9253	10.4853	
34	0.283333	-173.234	35.498	13.7807	-173.95	46.1025	-14.2767	-160.644	48.5761	-33.4783	-142.641	52.8542	-48.3063	-130.836	36.0505	-39.5088	-122.273	64.1559	-45.8736	-136.911	71.9378	-25.6887	-110.785	40.3398	-38.0652	-107.298	69.3979	-39.1095	-128.908	70.1806	-14.7746	-97.6552	39.3645	-21.2111	-100.921	66.4611	-29.2725	-118.036	71.0115	-6.17528	-91.6392	37.2751	0.291081	-90.0803	58.4282	-17.3794	-109.225	72.1861	-6.85962	-123.468	16.8396	14.5099	-136.855	13.24	39.0951	-147.202	14.0097	12.9538	
35	0.291667	-178.805	35.4017	16.9684	-179.434	35.2821	-14.0199	-171.403	33.1372	-32.908	-157.611	33.1829	-52.2212	-146.667	17.1177	-43.9389	-142.332	42.7201	-59.4116	-150.505	56.24	-38.1746	-122.585	21.282	-44.1032	-123.985	47.8144	-55.1125	-139.223	58.3082	-29.6888	-109.441	23.4894	-31.4682	-113.063	48.7635	-44.5545	-126.15	58.5432	-24.0492	-98.9311	24.3224	-16.8484	-101.904	43.0224	-34.0099	-114.102	59.7125	-23.2053	-125.583	10.7858	12.0527	-135.029	13.4055	38.447	-153.629	12.4204	17.7638	
36	0.3	-184.933	40.8479	19.8661	-189.384	36.8614	-9.1215	-187.13	30.4114	-28.9864	-181.436	23.9481	-53.9831	-164.807	7.81805	-39.2761	-158.511	22.8818	-60.5015	-160.907	46.7258	-41.5978	-147.546	6.01171	-42.3897	-144.486	27.6006	-61.97	-146.427	47.0433	-34.9954	-130.308	7.79603	-33.0987	-129.933	26.4507	-51.8568	-139.227	46.1438	-28.7917	-118.691	9.81468	-23.4841	-120.711	23.0541	-41.5583	-126.605	46.8375	-31.5175	-136.716	7.85316	15.1165	-142.993	13.853	37.6123	-164.247	13.4479	21.4298	
37	0.308333	-186.305	53.2561	21.82	-198.306	50.839	-5.03071	-201.407	44.7241	-23.4203	-201.448	34.3113	-47.5445	-190.821	12.3426	-36.7974	-182.752	26.2036	-57.4854	-177.238	50.1012	-40.8865	-174.172	5.19517	-36.7656	-165.766	22.6095	-59.3369	-158.753	41.8103	-35.1169	-156.98	0.492059	-32.3194	-154.914	21.7535	-52.4214	-147.168	40.5326	-30.1616	-142.086	-1.26927	-19.1146	-141.552	9.0375	-43.6411	-144.141	33.4252	-40.4084	-159.896	9.62297	18.0785	-152.653	15.3708	40.0863	-182.491	22.8841	24.6239	
38	0.316667	-182.477	65.5812	25.8313	-197.658	75.4896	0.332848	-208.366	69.0063	-19.8189	-208.316	56.8948	-38.9736	-213.98	35.6586	-26.1827	-205.523	44.8458	-53.3353	-182.854	59.0294	-40.4283	-205.811	23.0868	-32.4929	-189.744	31.8312	-56.7463	-171.944	46.1441	-31.8356	-191.499	10.374	-31.3359	-179.856	23.3826	-51.6469	-163.33	39.1582	-34.9566	-176.543	0.80466	-21.6117	-171.976	7.57873	-43.9768	-156.96	32.5824	-40.3903	-178.286	13.8076	18.4662	-171.848	22.3772	40.1843	-193.815	38.5386	30.1304	
39	0.325	-175.766	71.5673	26.9321	-185.449	84.8468	5.11952	-202.305	86.777	-17.3474	-210.687	73.7804	-39.7183	-222.903	60.8684	-26.9319	-215.016	64.4438	-49.8662	-184.253	70.5016	-39.9804	-220.998	42.0474	-32.9289	-203.198	47.7421	-54.967	-180.168	50.8521	-36.9919	-213.375	29.3523	-28.2326	-198.271	35.0489	-50.5194	-173.657	40.3039	-35.0121	-204.225	12.2059	-22.9707	-197.061	19.8379	-44.1561	-174.35	33.2548	-40.0095	-198.56	27.0883	20.2536	-183.578	25.5475	39.2929	-195.446	53.5488	32.7148	
40	0.333333	-169.374	77.6012	24.2405	-177.942	90.9249	2.36558	-191.583	97.9433	-16.8246	-204.361	90.4707	-39.0865	-221.717	80.8355	-25.8522	-211.554	82.3114	-49.9612	-184.445	73.6863	-44.662	-225.842	64.6067	-31.7698	-211.564	63.6749	-56.2184	-184.461	61.6503	-38.5369	-225.401	46.0753	-29.0167	-211.457	49.6082	-52.2595	-184.612	47.2047	-37.0901	-220.597	30.7537	-20.3414	-214.447	32.8709	-44.9723	-188.711	40.524	-44.6834	-211.91	36.7313	15.8545	-195.24	33.1016	38.2127	-197.956	60.3892	31.3603	
41	0.341667	-165.205	73.7063	21.9983	-166.479	86.5128	-0.0936954	-180.154	100.868	-22.7885	-196.279	94.1432	-40.5782	-210.505	95.9582	-26.3231	-206.429	94.4157	-53.0452	-182.576	76.195	-50.3991	-223.847	81.357	-35.5987	-209.936	76.1924	-60.3296	-187.637	59.4576	-42.5252	-229.71	62.6037	-31.2747	-214.819	64.049	-54.6784	-191.105	53.0454	-43.2863	-232.117	44.9055	-25.8371	-221.694	48.2525	-48.6208	-194.442	41.4339	-47.6374	-216.577	51.0156	13.6164	-202.772	43.2147	34.416	-195.061	68.4548	28.4102	
